# xmcd CD database file
# Copyright (C) 1995-1998 Ti Kan
#
# Track frame offsets:
#	150
#	14940
#	29652
#	42457
#	58472
#	71287
#	85517
#	98190
#	111977
#	127360
#	141452
#	155445
#
# Disc length: 2257 seconds
#
# Revision: 1
# Processed by: cddbd v1.4PL0 Copyright (c) Steve Scherf et al.
# Submitted via: CDex 1.30Release
#
DISCID=ba08cf0c
DTITLE=Cal Smith - Stories of Life
DYEAR=1900
DGENRE=Country
TTITLE0=Nobody Will Ever Take Your Place
TTITLE1=Birds and Children Fly Away
TTITLE2=I Know It's Not Over
TTITLE3=Country Bumpkin
TTITLE4=North Alabama
TTITLE5=Lorene
TTITLE6=I Think That I'd Be Better Off
TTITLE7=Mobile Bay
TTITLE8=The Show's Almost Over
TTITLE9=Bein' Gone
TTITLE10=King Lear
TTITLE11=Lucy Needs a Friend
EXTD=ID3G:   2
EXTT0=
EXTT1=
EXTT2=
EXTT3=
EXTT4=
EXTT5=
EXTT6=
EXTT7=
EXTT8=
EXTT9=
EXTT10=
EXTT11=
PLAYORDER=
